<svg xmlns="http://www.w3.org/2000/svg" width="1000" height="260" viewBox="0 0 1000 260" role="img" font-family="'Segoe UI',Ubuntu,'Helvetica Neue',Arial,sans-serif">
  <defs>
    <linearGradient id="hsky" x1="0" y1="0" x2="1" y2="1">
      <stop offset="0" stop-color="#0a0d16"/>
      <stop offset="0.5" stop-color="#101a34"/>
      <stop offset="1" stop-color="#0a0d16"/>
    </linearGradient>
    <linearGradient id="hplat" x1="0" y1="0" x2="1" y2="0">
      <stop offset="0" stop-color="#dcf5ff"/>
      <stop offset="0.4" stop-color="#eef1f8"/>
      <stop offset="0.6" stop-color="#8fe3ff"/>
      <stop offset="1" stop-color="#c9d3ea"/>
    </linearGradient>
    <linearGradient id="hgemA" x1="0" y1="0" x2="1" y2="1">
      <stop offset="0" stop-color="#dcf5ff"/><stop offset="1" stop-color="#5b8cff"/>
    </linearGradient>
    <linearGradient id="hgemB" x1="0" y1="0" x2="1" y2="1">
      <stop offset="0" stop-color="#8fe3ff"/><stop offset="1" stop-color="#b98cff"/>
    </linearGradient>
    <linearGradient id="hshine" x1="0" y1="0" x2="1" y2="0">
      <stop offset="0" stop-color="#fff" stop-opacity="0"/>
      <stop offset="0.5" stop-color="#fff" stop-opacity="0.6"/>
      <stop offset="1" stop-color="#fff" stop-opacity="0"/>
    </linearGradient>
    <filter id="hglow" x="-40%" y="-40%" width="180%" height="180%">
      <feGaussianBlur stdDeviation="3" result="b"/>
      <feMerge><feMergeNode in="b"/><feMergeNode in="SourceGraphic"/></feMerge>
    </filter>
    <clipPath id="hclip"><rect x="1" y="1" width="998" height="258" rx="20"/></clipPath>
  </defs>
  <rect x="1" y="1" width="998" height="258" rx="20" fill="url(#hsky)"/>
  <g clip-path="url(#hclip)">
    <g><path transform="translate(862.1 58.8)" d="M0,-4.4 Q0,0 4.4,0 Q0,0 0,4.4 Q0,0 -4.4,0 Q0,0 0,-4.4 Z" fill="#8fe3ff" opacity="0"><animate attributeName="opacity" values="0;0.95;0" dur="4.36s" begin="1.06s" repeatCount="indefinite"/><animateTransform attributeName="transform" type="scale" additive="sum" values="0.4;1;0.4" dur="4.36s" begin="1.06s" repeatCount="indefinite"/></path><path transform="translate(381.0 137.8)" d="M0,-3.3 Q0,0 3.3,0 Q0,0 0,3.3 Q0,0 -3.3,0 Q0,0 0,-3.3 Z" fill="#dcf5ff" opacity="0"><animate attributeName="opacity" values="0;0.95;0" dur="4.24s" begin="0.58s" repeatCount="indefinite"/><animateTransform attributeName="transform" type="scale" additive="sum" values="0.4;1;0.4" dur="4.24s" begin="0.58s" repeatCount="indefinite"/></path><path transform="translate(632.3 168.9)" d="M0,-3.8 Q0,0 3.8,0 Q0,0 0,3.8 Q0,0 -3.8,0 Q0,0 0,-3.8 Z" fill="#dcf5ff" opacity="0"><animate attributeName="opacity" values="0;0.95;0" dur="2.91s" begin="0.88s" repeatCount="indefinite"/><animateTransform attributeName="transform" type="scale" additive="sum" values="0.4;1;0.4" dur="2.91s" begin="0.88s" repeatCount="indefinite"/></path><path transform="translate(614.9 245.3)" d="M0,-3.9 Q0,0 3.9,0 Q0,0 0,3.9 Q0,0 -3.9,0 Q0,0 0,-3.9 Z" fill="#37e0a6" opacity="0"><animate attributeName="opacity" values="0;0.95;0" dur="3.46s" begin="1.26s" repeatCount="indefinite"/><animateTransform attributeName="transform" type="scale" additive="sum" values="0.4;1;0.4" dur="3.46s" begin="1.26s" repeatCount="indefinite"/></path><path transform="translate(183.0 139.8)" d="M0,-5.3 Q0,0 5.3,0 Q0,0 0,5.3 Q0,0 -5.3,0 Q0,0 0,-5.3 Z" fill="#dcf5ff" opacity="0"><animate attributeName="opacity" values="0;0.95;0" dur="4.88s" begin="1.05s" repeatCount="indefinite"/><animateTransform attributeName="transform" type="scale" additive="sum" values="0.4;1;0.4" dur="4.88s" begin="1.05s" repeatCount="indefinite"/></path><path transform="translate(557.5 199.9)" d="M0,-3.0 Q0,0 3.0,0 Q0,0 0,3.0 Q0,0 -3.0,0 Q0,0 0,-3.0 Z" fill="#dcf5ff" opacity="0"><animate attributeName="opacity" values="0;0.95;0" dur="3.77s" begin="2.47s" repeatCount="indefinite"/><animateTransform attributeName="transform" type="scale" additive="sum" values="0.4;1;0.4" dur="3.77s" begin="2.47s" repeatCount="indefinite"/></path><path transform="translate(676.6 113.7)" d="M0,-4.6 Q0,0 4.6,0 Q0,0 0,4.6 Q0,0 -4.6,0 Q0,0 0,-4.6 Z" fill="#c9d3ea" opacity="0"><animate attributeName="opacity" values="0;0.95;0" dur="2.84s" begin="0.01s" repeatCount="indefinite"/><animateTransform attributeName="transform" type="scale" additive="sum" values="0.4;1;0.4" dur="2.84s" begin="0.01s" repeatCount="indefinite"/></path><path transform="translate(86.2 24.2)" d="M0,-2.9 Q0,0 2.9,0 Q0,0 0,2.9 Q0,0 -2.9,0 Q0,0 0,-2.9 Z" fill="#dcf5ff" opacity="0"><animate attributeName="opacity" values="0;0.95;0" dur="4.79s" begin="1.69s" repeatCount="indefinite"/><animateTransform attributeName="transform" type="scale" additive="sum" values="0.4;1;0.4" dur="4.79s" begin="1.69s" repeatCount="indefinite"/></path><path transform="translate(940.4 15.0)" d="M0,-4.6 Q0,0 4.6,0 Q0,0 0,4.6 Q0,0 -4.6,0 Q0,0 0,-4.6 Z" fill="#dcf5ff" opacity="0"><animate attributeName="opacity" values="0;0.95;0" dur="4.25s" begin="2.47s" repeatCount="indefinite"/><animateTransform attributeName="transform" type="scale" additive="sum" values="0.4;1;0.4" dur="4.25s" begin="2.47s" repeatCount="indefinite"/></path><path transform="translate(800.4 178.3)" d="M0,-5.3 Q0,0 5.3,0 Q0,0 0,5.3 Q0,0 -5.3,0 Q0,0 0,-5.3 Z" fill="#5b8cff" opacity="0"><animate attributeName="opacity" values="0;0.95;0" dur="3.38s" begin="1.33s" repeatCount="indefinite"/><animateTransform attributeName="transform" type="scale" additive="sum" values="0.4;1;0.4" dur="3.38s" begin="1.33s" repeatCount="indefinite"/></path><path transform="translate(146.8 220.0)" d="M0,-5.5 Q0,0 5.5,0 Q0,0 0,5.5 Q0,0 -5.5,0 Q0,0 0,-5.5 Z" fill="#dcf5ff" opacity="0"><animate attributeName="opacity" values="0;0.95;0" dur="3.12s" begin="1.42s" repeatCount="indefinite"/><animateTransform attributeName="transform" type="scale" additive="sum" values="0.4;1;0.4" dur="3.12s" begin="1.42s" repeatCount="indefinite"/></path><path transform="translate(613.1 144.2)" d="M0,-4.6 Q0,0 4.6,0 Q0,0 0,4.6 Q0,0 -4.6,0 Q0,0 0,-4.6 Z" fill="#dcf5ff" opacity="0"><animate attributeName="opacity" values="0;0.95;0" dur="3.09s" begin="0.57s" repeatCount="indefinite"/><animateTransform attributeName="transform" type="scale" additive="sum" values="0.4;1;0.4" dur="3.09s" begin="0.57s" repeatCount="indefinite"/></path><path transform="translate(969.5 133.4)" d="M0,-2.9 Q0,0 2.9,0 Q0,0 0,2.9 Q0,0 -2.9,0 Q0,0 0,-2.9 Z" fill="#ff6b93" opacity="0"><animate attributeName="opacity" values="0;0.95;0" dur="3.50s" begin="1.11s" repeatCount="indefinite"/><animateTransform attributeName="transform" type="scale" additive="sum" values="0.4;1;0.4" dur="3.50s" begin="1.11s" repeatCount="indefinite"/></path><path transform="translate(143.6 55.2)" d="M0,-4.0 Q0,0 4.0,0 Q0,0 0,4.0 Q0,0 -4.0,0 Q0,0 0,-4.0 Z" fill="#dcf5ff" opacity="0"><animate attributeName="opacity" values="0;0.95;0" dur="3.39s" begin="2.31s" repeatCount="indefinite"/><animateTransform attributeName="transform" type="scale" additive="sum" values="0.4;1;0.4" dur="3.39s" begin="2.31s" repeatCount="indefinite"/></path><path transform="translate(205.0 87.1)" d="M0,-3.5 Q0,0 3.5,0 Q0,0 0,3.5 Q0,0 -3.5,0 Q0,0 0,-3.5 Z" fill="#dcf5ff" opacity="0"><animate attributeName="opacity" values="0;0.95;0" dur="2.67s" begin="2.00s" repeatCount="indefinite"/><animateTransform attributeName="transform" type="scale" additive="sum" values="0.4;1;0.4" dur="2.67s" begin="2.00s" repeatCount="indefinite"/></path><path transform="translate(342.2 84.2)" d="M0,-5.1 Q0,0 5.1,0 Q0,0 0,5.1 Q0,0 -5.1,0 Q0,0 0,-5.1 Z" fill="#ffd479" opacity="0"><animate attributeName="opacity" values="0;0.95;0" dur="3.62s" begin="0.13s" repeatCount="indefinite"/><animateTransform attributeName="transform" type="scale" additive="sum" values="0.4;1;0.4" dur="3.62s" begin="0.13s" repeatCount="indefinite"/></path><path transform="translate(369.8 215.3)" d="M0,-3.3 Q0,0 3.3,0 Q0,0 0,3.3 Q0,0 -3.3,0 Q0,0 0,-3.3 Z" fill="#dcf5ff" opacity="0"><animate attributeName="opacity" values="0;0.95;0" dur="2.83s" begin="1.65s" repeatCount="indefinite"/><animateTransform attributeName="transform" type="scale" additive="sum" values="0.4;1;0.4" dur="2.83s" begin="1.65s" repeatCount="indefinite"/></path><path transform="translate(689.3 180.1)" d="M0,-3.7 Q0,0 3.7,0 Q0,0 0,3.7 Q0,0 -3.7,0 Q0,0 0,-3.7 Z" fill="#dcf5ff" opacity="0"><animate attributeName="opacity" values="0;0.95;0" dur="3.53s" begin="2.23s" repeatCount="indefinite"/><animateTransform attributeName="transform" type="scale" additive="sum" values="0.4;1;0.4" dur="3.53s" begin="2.23s" repeatCount="indefinite"/></path><path transform="translate(491.8 63.4)" d="M0,-2.0 Q0,0 2.0,0 Q0,0 0,2.0 Q0,0 -2.0,0 Q0,0 0,-2.0 Z" fill="#b98cff" opacity="0"><animate attributeName="opacity" values="0;0.95;0" dur="3.42s" begin="1.09s" repeatCount="indefinite"/><animateTransform attributeName="transform" type="scale" additive="sum" values="0.4;1;0.4" dur="3.42s" begin="1.09s" repeatCount="indefinite"/></path><path transform="translate(284.4 244.6)" d="M0,-4.5 Q0,0 4.5,0 Q0,0 0,4.5 Q0,0 -4.5,0 Q0,0 0,-4.5 Z" fill="#dcf5ff" opacity="0"><animate attributeName="opacity" values="0;0.95;0" dur="2.84s" begin="0.87s" repeatCount="indefinite"/><animateTransform attributeName="transform" type="scale" additive="sum" values="0.4;1;0.4" dur="2.84s" begin="0.87s" repeatCount="indefinite"/></path><path transform="translate(697.5 56.3)" d="M0,-2.1 Q0,0 2.1,0 Q0,0 0,2.1 Q0,0 -2.1,0 Q0,0 0,-2.1 Z" fill="#dcf5ff" opacity="0"><animate attributeName="opacity" values="0;0.95;0" dur="3.57s" begin="1.61s" repeatCount="indefinite"/><animateTransform attributeName="transform" type="scale" additive="sum" values="0.4;1;0.4" dur="3.57s" begin="1.61s" repeatCount="indefinite"/></path><path transform="translate(851.2 125.6)" d="M0,-2.3 Q0,0 2.3,0 Q0,0 0,2.3 Q0,0 -2.3,0 Q0,0 0,-2.3 Z" fill="#8fe3ff" opacity="0"><animate attributeName="opacity" values="0;0.95;0" dur="3.96s" begin="0.07s" repeatCount="indefinite"/><animateTransform attributeName="transform" type="scale" additive="sum" values="0.4;1;0.4" dur="3.96s" begin="0.07s" repeatCount="indefinite"/></path><path transform="translate(770.5 66.3)" d="M0,-2.0 Q0,0 2.0,0 Q0,0 0,2.0 Q0,0 -2.0,0 Q0,0 0,-2.0 Z" fill="#dcf5ff" opacity="0"><animate attributeName="opacity" values="0;0.95;0" dur="2.50s" begin="2.87s" repeatCount="indefinite"/><animateTransform attributeName="transform" type="scale" additive="sum" values="0.4;1;0.4" dur="2.50s" begin="2.87s" repeatCount="indefinite"/></path><path transform="translate(347.6 186.5)" d="M0,-2.5 Q0,0 2.5,0 Q0,0 0,2.5 Q0,0 -2.5,0 Q0,0 0,-2.5 Z" fill="#dcf5ff" opacity="0"><animate attributeName="opacity" values="0;0.95;0" dur="4.74s" begin="0.13s" repeatCount="indefinite"/><animateTransform attributeName="transform" type="scale" additive="sum" values="0.4;1;0.4" dur="4.74s" begin="0.13s" repeatCount="indefinite"/></path><path transform="translate(852.2 182.1)" d="M0,-4.3 Q0,0 4.3,0 Q0,0 0,4.3 Q0,0 -4.3,0 Q0,0 0,-4.3 Z" fill="#37e0a6" opacity="0"><animate attributeName="opacity" values="0;0.95;0" dur="3.10s" begin="1.36s" repeatCount="indefinite"/><animateTransform attributeName="transform" type="scale" additive="sum" values="0.4;1;0.4" dur="3.10s" begin="1.36s" repeatCount="indefinite"/></path><path transform="translate(821.4 49.4)" d="M0,-2.9 Q0,0 2.9,0 Q0,0 0,2.9 Q0,0 -2.9,0 Q0,0 0,-2.9 Z" fill="#dcf5ff" opacity="0"><animate attributeName="opacity" values="0;0.95;0" dur="4.23s" begin="2.22s" repeatCount="indefinite"/><animateTransform attributeName="transform" type="scale" additive="sum" values="0.4;1;0.4" dur="4.23s" begin="2.22s" repeatCount="indefinite"/></path></g>
    <rect x="-260" y="0" width="364" height="260" fill="url(#hshine)"
          opacity="0.08" transform="skewX(-18)">
      <animateTransform attributeName="transform" type="translate" additive="sum"
        from="-260 0" to="1260 0" dur="8s" repeatCount="indefinite"/>
    </rect>
  </g><g filter="url(#hglow)"><animateTransform attributeName="transform" type="translate" values="0 0;0 -6;0 0" dur="5s" repeatCount="indefinite"/><path d="M444,72 L556,72 L500,156 Z" fill="url(#hgemA)"/><path d="M444,72 L480,72 L500,156 Z" fill="url(#hgemB)" opacity="0.85"/><path d="M556,72 L520,72 L500,156 Z" fill="url(#hgemB)" opacity="0.7"/><path d="M444,72 L472,48 L528,48 L556,72 L520,72 L500,62 L480,72 Z" fill="url(#hplat)"/><path d="M472,48 L500,62 L528,48 Z" fill="#dcf5ff" opacity="0.9"/><line x1="480" y1="72" x2="500" y2="156" stroke="#0a0d16" stroke-width="1" opacity="0.35"/><line x1="520" y1="72" x2="500" y2="156" stroke="#0a0d16" stroke-width="1" opacity="0.35"/></g><path transform="translate(482 62)" d="M0,-6 Q0,0 6,0 Q0,0 0,6 Q0,0 -6,0 Q0,0 0,-6 Z" fill="#fff" opacity="0"><animate attributeName="opacity" values="0;1;0" dur="2.6s" begin="0s" repeatCount="indefinite"/></path><path transform="translate(522 82)" d="M0,-6 Q0,0 6,0 Q0,0 0,6 Q0,0 -6,0 Q0,0 0,-6 Z" fill="#fff" opacity="0"><animate attributeName="opacity" values="0;1;0" dur="2.6s" begin="1.2s" repeatCount="indefinite"/></path><path transform="translate(500 112)" d="M0,-6 Q0,0 6,0 Q0,0 0,6 Q0,0 -6,0 Q0,0 0,-6 Z" fill="#fff" opacity="0"><animate attributeName="opacity" values="0;1;0" dur="2.6s" begin="2.1s" repeatCount="indefinite"/></path><text x="500" y="196" font-size="46" font-weight="800" font-family="Georgia,'Times New Roman','Playfair Display',serif" fill="url(#hplat)" text-anchor="middle" letter-spacing="1.5" filter="url(#hglow)">Khushi Shukla</text><text x="500" y="228" font-size="16.5" font-family="'Segoe UI',Ubuntu,'Helvetica Neue',Arial,sans-serif" fill="#8fe3ff" text-anchor="middle" letter-spacing="3" opacity="0.92">FULL-STACK WEB DEVELOPER</text><rect x="1.5" y="1.5" width="997" height="257" rx="19" fill="none" stroke="url(#hgemA)" stroke-width="1.5" opacity="0.8"/></svg>